<?xml version="1.0" standalone="no"?>
<!DOCTYPE svg PUBLIC "-//W3C//DTD SVG 20010904//EN"
 "http://www.w3.org/TR/2001/REC-SVG-20010904/DTD/svg10.dtd">
<svg version="1.0" xmlns="http://www.w3.org/2000/svg"
 width="250.000000pt" height="250.000000pt" viewBox="0 0 250.000000 250.000000"
 preserveAspectRatio="xMidYMid meet">
<metadata>
Created by potrace 1.14, written by Peter Selinger 2001-2017
</metadata>
<g transform="translate(0.000000,250.000000) scale(0.100000,-0.100000)"
fill="#000000" stroke="none">
<path d="M0 1250 l0 -1250 1250 0 1250 0 0 1250 0 1250 -1250 0 -1250 0 0
-1250z m1720 545 l0 -155 -155 0 -155 0 0 -402 c0 -479 -3 -496 -88 -590 -54
-60 -141 -98 -223 -98 -89 0 -149 23 -213 81 -72 66 -100 130 -100 229 0 100
28 163 101 230 68 62 136 85 232 78 37 -3 81 -13 99 -22 l32 -17 0 411 0 410
235 0 235 0 0 -155z"/>
</g>
</svg>
